#!OML:ASF F:\VICON\USERDATA\INSTALL\rory3\rory3.ASF
:FULLY-SPECIFIED
:DEGREES
4468
root -10.4881 17.9881 2.58701 -1081.18 133.564 -720.375
lowerback 11.7092 1.27845 -1.04195
upperback 0.690594 1.77333 2.13155
thorax -5.94685 0.961913 2.52988
lowerneck -15.4181 -6.82026 -10.6914
upperneck 32.1626 -7.54736 6.50905
head 14.3228 -3.20574 3.32888
rclavicle -1.14798e-014 -3.97569e-015
rhumerus -31.859 -6.48112 -82.6604
rradius 30.5905
rwrist 4.21858
rhand -18.5513 6.83438
rfingers 7.12502
rthumb 7.73824 -23.004
lclavicle -1.14798e-014 -3.97569e-015
lhumerus -39.1824 -0.0255391 86.6634
lradius 35.7459
lwrist -6.42677
lhand -16.7782 24.3122
lfingers 7.12502
lthumb 9.44939 54.0804
rfemur -3.97769 -1.83962 28.4824
rtibia 20.4631
rfoot -12.1132 0.339996
rtoes 11.7754
lfemur -16.5648 -0.788377 -17.7512
ltibia 59.2119
lfoot -0.669416 -1.48047
ltoes -6.37442
4469
root -10.4175 17.967 2.50095 -1081.14 133.071 -720.207
lowerback 11.915 1.31407 -1.02028
upperback 0.539106 1.82999 2.22887
thorax -6.22845 0.993017 2.60662
lowerneck -15.253 -6.79319 -10.679
upperneck 32.1918 -7.45172 6.30085
head 14.2779 -3.19168 3.26176
rclavicle -3.95085e-014 7.15625e-015
rhumerus -31.92 -6.1578 -82.6384
rradius 30.9917
rwrist 4.10668
rhand -18.5559 6.96621
rfingers 7.12502
rthumb 7.73381 -22.8724
lclavicle -3.95085e-014 7.15625e-015
lhumerus -39.4551 0.290246 86.7234
lradius 35.5035
lwrist -6.60264
lhand -16.7646 24.3604
lfingers 7.12502
lthumb 9.46248 54.128
rfemur -3.64672 -1.53234 28.594
rtibia 20.8583
rfoot -12.7233 0.319913
rtoes 13.1774
lfemur -17.2762 -1.17267 -17.5577
ltibia 58.6571
lfoot -1.75753 -0.927696
ltoes -8.80811
4470
root -10.3497 17.9454 2.41502 -1081.01 132.553 -719.912
lowerback 12.21 1.29045 -0.978548
upperback 0.30913 1.81984 2.41747
thorax -6.64333 0.994437 2.77904
lowerneck -14.9683 -6.71176 -10.7984
upperneck 32.2471 -7.2449 6.10821
head 14.2146 -3.14296 3.24717
rclavicle 1.03368e-014 4.21423e-014
rhumerus -32.1324 -5.43421 -82.6876
rradius 31.4534
rwrist 4.05955
rhand -18.6099 6.85233
rfingers 7.12502
rthumb 7.68169 -22.9881
lclavicle 1.03368e-014 4.21423e-014
lhumerus -39.9674 0.909449 86.7323
lradius 35.316
lwrist -6.88522
lhand -16.9405 24.3659
lfingers 7.12502
lthumb 9.29278 54.1411
rfemur -3.24689 -1.07397 28.8095
rtibia 21.1481
rfoot -13.2405 0.224171
rtoes 13.8143
lfemur -17.9414 -1.5143 -17.2774
ltibia 57.9791
lfoot -2.55092 -0.500109
ltoes -9.66104
4471
root -10.2836 17.9267 2.3294 -1080.92 131.995 -719.65
lowerback 12.4657 1.29372 -0.705599
upperback 0.155158 1.86722 2.44496
thorax -6.94641 1.01175 2.64057
lowerneck -14.779 -6.67632 -11.0451
upperneck 32.2693 -7.18702 6.27082
head 14.1976 -3.12735 3.37163
rclavicle -9.39258e-015 -2.14687e-014
rhumerus -32.2941 -4.71045 -82.913
rradius 31.9839
rwrist 3.6127
rhand -18.5058 7.06211
rfingers 7.12502
rthumb 7.78214 -22.7747
lclavicle -9.39258e-015 -2.14687e-014
lhumerus -40.3784 1.08513 86.7448
lradius 35.1502
lwrist -7.1402
lhand -17.4747 24.3856
lfingers 7.12502
lthumb 8.77731 54.183
rfemur -2.78353 -0.710868 28.9673
rtibia 21.3374
rfoot -13.6719 0.288757
rtoes 13.6002
lfemur -18.5389 -1.81146 -17.0115
ltibia 57.1484
lfoot -3.28026 -0.185687
ltoes -10.1659
4472
root -10.2113 17.9143 2.2402 -1080.91 131.399 -719.432
lowerback 11.7301 1.51019 0.585342
upperback 0.852657 2.26955 1.71561
thorax -5.73329 1.15695 1.09161
lowerneck -15.3275 -6.96003 -10.7653
upperneck 31.7485 -7.98052 7.0837
head 14.1989 -3.3453 3.4863
rclavicle 2.5842e-014 -3.93594e-014
rhumerus -31.1614 -6.10605 -83.604
rradius 32.2989
rwrist 3.58578
rhand -18.3414 7.60042
rfingers 7.12502
rthumb 7.9408 -22.2304
lclavicle 2.5842e-014 -3.93594e-014
lhumerus -39.0662 -0.521952 86.4058
lradius 34.736
lwrist -7.17789
lhand -17.7968 24.365
lfingers 7.12502
lthumb 8.46648 54.1752
rfemur -2.19416 -0.433733 29.0648
rtibia 21.4019
rfoot -14.0556 0.494114
rtoes 13.4132
lfemur -19.0002 -2.10172 -16.7779
ltibia 56.168
lfoot -3.99866 0.0681798
ltoes -9.49732
